<mxfile host="app.diagrams.net" modified="2021-02-07T02:37:19.338Z" agent="5.0 (Windows NT 10.0; Win64; x64) AppleWebKit/537.36 (KHTML, like Gecko) Chrome/88.0.4324.150 Safari/537.36 Edg/88.0.705.63" etag="pxuyfYNO2ubymTyNIUm0" version="14.2.9" type="github">
  <diagram id="C5RBs43oDa-KdzZeNtuy" name="Page-1">
    <mxGraphModel dx="677" dy="363" grid="1" gridSize="10" guides="1" tooltips="1" connect="1" arrows="1" fold="1" page="1" pageScale="1" pageWidth="827" pageHeight="1169" math="0" shadow="0">
      <root>
        <mxCell id="WIyWlLk6GJQsqaUBKTNV-0" />
        <mxCell id="WIyWlLk6GJQsqaUBKTNV-1" parent="WIyWlLk6GJQsqaUBKTNV-0" />
        <mxCell id="S14Ars9MVM3jiIzqdodp-5" style="edgeStyle=orthogonalEdgeStyle;rounded=0;orthogonalLoop=1;jettySize=auto;html=1;exitX=0.5;exitY=1;exitDx=0;exitDy=0;entryX=0.5;entryY=0;entryDx=0;entryDy=0;" edge="1" parent="WIyWlLk6GJQsqaUBKTNV-1" source="S14Ars9MVM3jiIzqdodp-3" target="S14Ars9MVM3jiIzqdodp-4">
          <mxGeometry relative="1" as="geometry" />
        </mxCell>
        <mxCell id="S14Ars9MVM3jiIzqdodp-3" value="开始" style="rounded=1;whiteSpace=wrap;html=1;" vertex="1" parent="WIyWlLk6GJQsqaUBKTNV-1">
          <mxGeometry x="100" y="30" width="60" height="30" as="geometry" />
        </mxCell>
        <mxCell id="S14Ars9MVM3jiIzqdodp-7" value="" style="edgeStyle=orthogonalEdgeStyle;rounded=0;orthogonalLoop=1;jettySize=auto;html=1;" edge="1" parent="WIyWlLk6GJQsqaUBKTNV-1" source="S14Ars9MVM3jiIzqdodp-4" target="S14Ars9MVM3jiIzqdodp-6">
          <mxGeometry relative="1" as="geometry" />
        </mxCell>
        <mxCell id="S14Ars9MVM3jiIzqdodp-4" value="OLED初始化" style="rounded=0;whiteSpace=wrap;html=1;" vertex="1" parent="WIyWlLk6GJQsqaUBKTNV-1">
          <mxGeometry x="90" y="80" width="80" height="30" as="geometry" />
        </mxCell>
        <mxCell id="S14Ars9MVM3jiIzqdodp-20" value="" style="edgeStyle=orthogonalEdgeStyle;rounded=0;orthogonalLoop=1;jettySize=auto;html=1;" edge="1" parent="WIyWlLk6GJQsqaUBKTNV-1" source="S14Ars9MVM3jiIzqdodp-6" target="S14Ars9MVM3jiIzqdodp-19">
          <mxGeometry relative="1" as="geometry" />
        </mxCell>
        <mxCell id="S14Ars9MVM3jiIzqdodp-6" value="串口初始化" style="whiteSpace=wrap;html=1;rounded=0;" vertex="1" parent="WIyWlLk6GJQsqaUBKTNV-1">
          <mxGeometry x="90" y="130" width="80" height="30" as="geometry" />
        </mxCell>
        <mxCell id="S14Ars9MVM3jiIzqdodp-33" style="edgeStyle=orthogonalEdgeStyle;rounded=0;orthogonalLoop=1;jettySize=auto;html=1;exitX=0.5;exitY=1;exitDx=0;exitDy=0;entryX=0.5;entryY=0;entryDx=0;entryDy=0;" edge="1" parent="WIyWlLk6GJQsqaUBKTNV-1" source="S14Ars9MVM3jiIzqdodp-9" target="S14Ars9MVM3jiIzqdodp-12">
          <mxGeometry relative="1" as="geometry" />
        </mxCell>
        <mxCell id="S14Ars9MVM3jiIzqdodp-9" value="发送询问信号0x80" style="rounded=0;whiteSpace=wrap;html=1;" vertex="1" parent="WIyWlLk6GJQsqaUBKTNV-1">
          <mxGeometry x="75" y="260" width="110" height="30" as="geometry" />
        </mxCell>
        <mxCell id="S14Ars9MVM3jiIzqdodp-37" style="edgeStyle=orthogonalEdgeStyle;rounded=0;orthogonalLoop=1;jettySize=auto;html=1;exitX=0.5;exitY=1;exitDx=0;exitDy=0;entryX=0;entryY=0.5;entryDx=0;entryDy=0;" edge="1" parent="WIyWlLk6GJQsqaUBKTNV-1" source="S14Ars9MVM3jiIzqdodp-12" target="S14Ars9MVM3jiIzqdodp-19">
          <mxGeometry relative="1" as="geometry" />
        </mxCell>
        <mxCell id="S14Ars9MVM3jiIzqdodp-12" value="延时100ms" style="whiteSpace=wrap;html=1;rounded=0;" vertex="1" parent="WIyWlLk6GJQsqaUBKTNV-1">
          <mxGeometry x="85" y="450" width="90" height="25" as="geometry" />
        </mxCell>
        <object label="" id="S14Ars9MVM3jiIzqdodp-21">
          <mxCell style="edgeStyle=orthogonalEdgeStyle;rounded=0;orthogonalLoop=1;jettySize=auto;html=1;" edge="1" parent="WIyWlLk6GJQsqaUBKTNV-1" source="S14Ars9MVM3jiIzqdodp-19" target="S14Ars9MVM3jiIzqdodp-9">
            <mxGeometry relative="1" as="geometry" />
          </mxCell>
        </object>
        <mxCell id="S14Ars9MVM3jiIzqdodp-25" style="edgeStyle=orthogonalEdgeStyle;rounded=0;orthogonalLoop=1;jettySize=auto;html=1;exitX=1;exitY=0.5;exitDx=0;exitDy=0;entryX=0.5;entryY=0;entryDx=0;entryDy=0;" edge="1" parent="WIyWlLk6GJQsqaUBKTNV-1" source="S14Ars9MVM3jiIzqdodp-19" target="S14Ars9MVM3jiIzqdodp-24">
          <mxGeometry relative="1" as="geometry" />
        </mxCell>
        <mxCell id="S14Ars9MVM3jiIzqdodp-19" value="断开状态" style="rhombus;whiteSpace=wrap;html=1;" vertex="1" parent="WIyWlLk6GJQsqaUBKTNV-1">
          <mxGeometry x="70" y="190" width="120" height="40" as="geometry" />
        </mxCell>
        <mxCell id="S14Ars9MVM3jiIzqdodp-29" value="" style="edgeStyle=orthogonalEdgeStyle;rounded=0;orthogonalLoop=1;jettySize=auto;html=1;" edge="1" parent="WIyWlLk6GJQsqaUBKTNV-1" source="S14Ars9MVM3jiIzqdodp-24" target="S14Ars9MVM3jiIzqdodp-28">
          <mxGeometry relative="1" as="geometry" />
        </mxCell>
        <mxCell id="S14Ars9MVM3jiIzqdodp-35" style="edgeStyle=orthogonalEdgeStyle;rounded=0;orthogonalLoop=1;jettySize=auto;html=1;exitX=0;exitY=0.5;exitDx=0;exitDy=0;entryX=1;entryY=0.5;entryDx=0;entryDy=0;" edge="1" parent="WIyWlLk6GJQsqaUBKTNV-1" source="S14Ars9MVM3jiIzqdodp-24" target="S14Ars9MVM3jiIzqdodp-12">
          <mxGeometry relative="1" as="geometry" />
        </mxCell>
        <mxCell id="S14Ars9MVM3jiIzqdodp-24" value="发送状态" style="rhombus;whiteSpace=wrap;html=1;" vertex="1" parent="WIyWlLk6GJQsqaUBKTNV-1">
          <mxGeometry x="220" y="255" width="120" height="40" as="geometry" />
        </mxCell>
        <mxCell id="S14Ars9MVM3jiIzqdodp-34" style="edgeStyle=orthogonalEdgeStyle;rounded=0;orthogonalLoop=1;jettySize=auto;html=1;exitX=0.5;exitY=1;exitDx=0;exitDy=0;entryX=1;entryY=0.5;entryDx=0;entryDy=0;" edge="1" parent="WIyWlLk6GJQsqaUBKTNV-1" source="S14Ars9MVM3jiIzqdodp-26" target="S14Ars9MVM3jiIzqdodp-12">
          <mxGeometry relative="1" as="geometry" />
        </mxCell>
        <mxCell id="S14Ars9MVM3jiIzqdodp-26" value="发送数据" style="whiteSpace=wrap;html=1;" vertex="1" parent="WIyWlLk6GJQsqaUBKTNV-1">
          <mxGeometry x="239.37" y="400" width="81.25" height="30" as="geometry" />
        </mxCell>
        <mxCell id="S14Ars9MVM3jiIzqdodp-32" style="edgeStyle=orthogonalEdgeStyle;rounded=0;orthogonalLoop=1;jettySize=auto;html=1;exitX=0.5;exitY=1;exitDx=0;exitDy=0;entryX=0.5;entryY=0;entryDx=0;entryDy=0;" edge="1" parent="WIyWlLk6GJQsqaUBKTNV-1" source="S14Ars9MVM3jiIzqdodp-28" target="S14Ars9MVM3jiIzqdodp-26">
          <mxGeometry relative="1" as="geometry" />
        </mxCell>
        <mxCell id="S14Ars9MVM3jiIzqdodp-36" style="edgeStyle=orthogonalEdgeStyle;rounded=0;orthogonalLoop=1;jettySize=auto;html=1;exitX=0;exitY=0.5;exitDx=0;exitDy=0;entryX=1;entryY=0.5;entryDx=0;entryDy=0;" edge="1" parent="WIyWlLk6GJQsqaUBKTNV-1" source="S14Ars9MVM3jiIzqdodp-28" target="S14Ars9MVM3jiIzqdodp-12">
          <mxGeometry relative="1" as="geometry" />
        </mxCell>
        <mxCell id="S14Ars9MVM3jiIzqdodp-28" value="首次发送数据" style="rhombus;whiteSpace=wrap;html=1;" vertex="1" parent="WIyWlLk6GJQsqaUBKTNV-1">
          <mxGeometry x="220" y="320" width="120" height="40" as="geometry" />
        </mxCell>
        <mxCell id="S14Ars9MVM3jiIzqdodp-38" value="串口中断" style="rounded=1;whiteSpace=wrap;html=1;" vertex="1" parent="WIyWlLk6GJQsqaUBKTNV-1">
          <mxGeometry x="420" y="30" width="60" height="30" as="geometry" />
        </mxCell>
      </root>
    </mxGraphModel>
  </diagram>
</mxfile>
